<svg width="353" height="268" viewBox="0 0 353 268" fill="none" xmlns="http://www.w3.org/2000/svg">
<g clip-path="url(#clip0_115_227)">
<path d="M319.642 266.759H244.794V264.405C244.794 262.361 245.586 260.401 246.996 258.955C248.406 257.51 250.319 256.698 252.313 256.698H312.123C314.117 256.698 316.03 257.51 317.44 258.955C318.85 260.401 319.642 262.361 319.642 264.405V266.759Z" fill="#E6E6E6"/>
<path d="M280.466 257.168L282.743 256.228C258.927 195.641 261.221 119.206 281.353 53.638C283.745 46.041 283.917 37.8932 281.849 30.1971C279.782 22.501 275.564 15.5922 269.715 10.3207C258.03 -0.366721 241.92 -2.97026 227.669 3.52538C213.603 9.93814 211.664 21.1082 211.664 32.2239H214.118C214.118 20.3584 216.593 11.328 228.667 5.82344C242.023 -0.264175 257.125 2.17757 268.081 12.1975C273.575 17.1485 277.536 23.6375 279.478 30.866C281.421 38.0946 281.259 45.7473 279.012 52.8827C258.648 119.208 256.488 196.168 280.466 257.168Z" fill="#E6E6E6"/>
<path d="M213.505 69.3219C218.249 69.3219 222.094 65.3807 222.094 60.519C222.094 55.6573 218.249 51.7161 213.505 51.7161C208.761 51.7161 204.916 55.6573 204.916 60.519C204.916 65.3807 208.761 69.3219 213.505 69.3219Z" fill="#E6E6E6"/>
<path d="M200.277 75.865V59.1856H202.807V75.865C203.533 76.1659 204.134 76.7162 204.508 77.4216C204.881 78.127 205.004 78.9435 204.854 79.7312C204.705 80.5189 204.292 81.2288 203.688 81.7392C203.084 82.2496 202.325 82.5287 201.542 82.5287C200.759 82.5287 200.001 82.2496 199.396 81.7392C198.792 81.2288 198.38 80.5189 198.23 79.7312C198.081 78.9435 198.203 78.127 198.576 77.4216C198.95 76.7162 199.551 76.1659 200.277 75.865Z" fill="#E6E6E6"/>
<path d="M188.044 46.3713C188.049 42.5371 189.537 38.8612 192.182 36.15C194.827 33.4388 198.414 31.9138 202.155 31.9094H225.468C229.211 31.9094 232.8 33.4331 235.446 36.1452C238.092 38.8573 239.579 42.5358 239.579 46.3713C239.579 50.2069 238.092 53.8853 235.446 56.5975C232.8 59.3096 229.211 60.8333 225.468 60.8333H202.155C198.414 60.8289 194.827 59.3039 192.182 56.5927C189.537 53.8815 188.049 50.2055 188.044 46.3713Z" fill="#0E4C9D"/>
<path d="M155.197 135.929C157.537 105.236 169.505 90.613 161.842 81.4425C154.502 72.6583 133.825 74.4729 120.546 82.902C84.7293 105.637 71.6075 196.251 117.698 240.523C161.495 282.593 244.5 269.119 262.947 234.685C267.251 226.651 270.67 212.566 264.371 204.037C248.731 182.86 191.87 221.217 166.589 197.226C151.606 183.008 153.912 152.773 155.197 135.929Z" fill="#3F3D56"/>
<path d="M182.575 120.681C181.705 121.091 181.026 121.833 180.682 122.748C180.337 123.664 180.355 124.681 180.731 125.584C180.811 125.766 180.904 125.941 181.012 126.108L173.324 136.628L177.16 142.504L186.171 126.926C186.81 126.415 187.265 125.703 187.467 124.899C187.669 124.096 187.605 123.246 187.287 122.484C187.101 122.051 186.834 121.661 186.502 121.334C186.169 121.008 185.777 120.751 185.347 120.58C184.918 120.409 184.46 120.326 183.999 120.336C183.539 120.347 183.085 120.45 182.663 120.64C182.634 120.653 182.604 120.667 182.575 120.681Z" fill="#FFB6B6"/>
<path d="M182.569 138.819C183.072 139.276 181.677 139.841 180.201 138.95C179.778 138.693 179.598 138.586 179.55 138.654C179.432 138.824 180.125 140.079 179.939 142.867C179.826 144.53 177.129 147.658 174.068 150.709C169.929 154.834 165.116 158.814 165.116 158.814L163.426 157.427L145.706 142.867L142.716 138.624C142.99 136.949 143.401 135.301 143.945 133.696C144.695 131.476 145.586 129.308 146.613 127.207C147.164 126.063 147.728 124.974 148.27 123.972L157.763 134.694L165.718 143.674C165.718 143.674 168.035 139.85 169.829 138.809C170.058 138.66 170.318 138.568 170.588 138.542C172.402 138.454 172.511 137.442 170.408 135.239C168.305 133.035 170.959 135.093 172.829 134.499C174.699 133.906 172.829 134.499 173.223 133.015C173.617 131.532 178.862 128.554 178.862 128.554L179.08 128.754L183.044 132.339L184.178 133.366C184.178 133.366 182.939 136.849 182.598 137.583C182.256 138.318 182.071 138.357 182.569 138.819Z" fill="#0E4C9D"/>
<path d="M287.052 206.399L287.245 201.033L267.142 197.716L266.857 205.635L287.052 206.399Z" fill="#FFB6B6"/>
<path d="M283.403 208.015L283.212 199.423L286.796 199.559L292.582 191.616C292.867 191.224 293.268 190.935 293.725 190.793C294.182 190.65 294.671 190.661 295.122 190.824C295.572 190.987 295.96 191.293 296.229 191.698C296.498 192.103 296.633 192.585 296.615 193.074L296.248 203.28L292.64 204.905L296.16 205.726L296.021 209.574L283.403 208.015Z" fill="#2F2E41"/>
<path d="M173.91 208.488L237.584 210.143C237.584 210.143 265.08 211.771 271.532 207.47L278.335 206.589L278.703 196.348C278.703 196.348 274.543 196.379 272.151 195.237C269.76 194.095 271.422 192.697 269.141 194.071C266.861 195.446 267.102 195.611 265.339 194.979C263.576 194.348 182.722 181.717 182.722 181.717L173.91 208.488Z" fill="#2F2E41"/>
<path d="M257.815 204.044L261.518 200.245L248.982 183.8L243.517 189.408L257.815 204.044Z" fill="#FFB6B6"/>
<path d="M254.068 200.739L259.63 194.308L262.167 196.905L271.679 195.115C272.149 195.027 272.634 195.095 273.064 195.309C273.493 195.523 273.845 195.872 274.067 196.305C274.289 196.739 274.37 197.234 274.299 197.718C274.227 198.202 274.006 198.649 273.669 198.996L266.627 206.222L262.903 204.898L264.939 207.954L262.284 210.678L254.068 200.739Z" fill="#2F2E41"/>
<path d="M148.789 172.749L149.422 187.83C150.167 205.583 169.244 216.328 184.036 207.059C184.309 206.888 184.583 206.711 184.857 206.528C184.857 206.528 190.465 204.984 190.295 202.54C190.125 200.096 191.494 198.906 192.707 199.573C193.919 200.239 209.793 177.15 209.793 177.15C209.793 177.15 242.774 194.011 250.05 197.98C250.05 197.98 256.89 187.018 256.395 187.133C255.899 187.248 215.593 158.336 215.593 158.336C215.593 158.336 209.027 151.525 200.882 156.022C200.712 156.683 200.857 156.706 200.857 156.706L173.951 179.176L170.149 171.776L148.789 172.749Z" fill="#2F2E41"/>
<path d="M174.158 153.895C174.107 154.592 174.01 155.284 173.868 155.968C173.675 156.957 173.362 157.918 172.938 158.828C172.938 158.828 172.938 159.845 171.039 163.25C169.141 166.656 171.514 165.196 172.938 167.726C174.362 170.251 172.938 169.088 171.357 170.713C170.902 171.186 170.579 171.775 170.421 172.419C170.264 173.063 170.277 173.739 170.46 174.376C170.46 174.376 150.068 174.391 146.271 172.931C142.474 171.472 141.61 163.25 145.013 162.438C148.412 161.625 143.983 160.818 141.985 158.945C139.986 157.072 143.983 154.007 143.983 154.007C143.983 154.007 142.336 151.093 142.474 141.31C142.493 140.41 142.574 139.513 142.716 138.624C142.99 136.949 143.401 135.301 143.945 133.696C144.695 131.476 145.586 129.308 146.613 127.207C147.163 126.063 147.728 124.974 148.269 123.972C148.355 123.816 148.436 123.665 148.521 123.514C149.551 121.646 150.491 120.119 151.113 119.141C151.592 118.382 151.882 117.954 151.882 117.954L155.337 111.795L166.872 117.336L166.217 126.399L168.206 133.234L169.122 136.382L169.829 138.809L170.921 142.57C170.921 142.57 170.622 142.584 170.978 143.086C172.617 145.32 173.68 147.942 174.068 150.709C174.204 151.765 174.235 152.833 174.158 153.895Z" fill="#0E4C9D"/>
<path d="M207.468 154.872L207.252 154.8L179.644 145.689L189.818 111.483C190.02 110.802 190.371 110.177 190.844 109.655C191.316 109.133 191.898 108.728 192.546 108.47C193.193 108.212 193.89 108.108 194.582 108.166C195.275 108.224 195.945 108.442 196.543 108.804L214.186 119.487C215.582 120.332 216.645 121.653 217.187 123.219C217.73 124.785 217.719 126.496 217.155 128.055L207.468 154.872Z" fill="#2F2E41"/>
<path d="M207.58 157.046L179.751 147.862L189.924 113.656C190.127 112.975 190.477 112.35 190.95 111.828C191.423 111.306 192.005 110.901 192.652 110.643C193.3 110.385 193.996 110.281 194.689 110.339C195.381 110.397 196.052 110.615 196.65 110.977L215.134 120.436C217.911 122.117 217.846 126.468 216.557 130.038L207.58 157.046Z" fill="#0E4C9D"/>
<path d="M204.794 159.522C204.153 159.893 203.444 160.123 202.712 160.197C201.98 160.272 201.241 160.19 200.541 159.956L182.753 154.085C181.388 153.628 180.252 152.642 179.587 151.338C178.922 150.034 178.78 148.515 179.193 147.106L188.111 117.12C188.29 116.521 188.583 115.965 188.973 115.483C189.364 115.002 189.845 114.605 190.387 114.317C190.93 114.028 191.523 113.854 192.132 113.803C192.741 113.753 193.354 113.827 193.934 114.023L212.368 120.226C213.246 120.521 214.058 120.994 214.755 121.617C215.452 122.239 216.02 122.998 216.426 123.85C216.832 124.701 217.067 125.627 217.118 126.573C217.169 127.519 217.034 128.466 216.722 129.358L207.187 156.602C206.759 157.84 205.909 158.876 204.794 159.522Z" fill="#3F3D56"/>
<path d="M166.22 111.9C173.256 111.9 178.96 106.054 178.96 98.8423C178.96 91.6308 173.256 85.7847 166.22 85.7847C159.183 85.7847 153.479 91.6308 153.479 98.8423C153.479 106.054 159.183 111.9 166.22 111.9Z" fill="#FFB6B6"/>
<path d="M123.137 112.097C124.306 114.419 126.223 116.256 128.563 117.295C129.497 117.731 130.479 118.05 131.487 118.244C131.772 117.085 132.229 115.978 132.84 114.961C132.636 116.108 132.636 117.282 132.84 118.429C134.377 118.558 135.923 118.361 137.382 117.851C138.814 117.352 140.114 116.517 141.177 115.413C142.241 114.309 143.038 112.966 143.507 111.491C144.522 108.03 143.429 104.333 143.342 100.72C143.254 97.1071 144.928 92.7856 148.428 92.3385C151.093 91.9975 150.763 92.2623 152.678 94.192C149.999 97.2418 156.53 110.75 160.034 110.153C162.016 109.816 163.474 108.203 163.865 108.259C165.872 113.296 159.836 120.438 164.623 122.783L164.268 122.301C161.762 118.059 169.177 110.893 166.671 106.65C165.973 105.464 165.246 104.072 165.678 102.759C166.089 101.511 168.166 101.116 168.604 102.252C167.892 99.648 169.881 96.5914 172.523 96.3257C174.87 96.0883 174.734 96.7739 176.972 97.3995C177.258 96.4115 177.67 95.4666 178.197 94.5892C178.019 95.5902 177.997 96.6139 178.132 97.6219C178.939 97.7206 179.756 97.5435 180.454 97.1181C182.521 95.8485 182.582 92.5712 181.163 90.5766C179.741 88.5816 177.359 87.5966 175.06 86.8513C175.039 81.8702 161.962 79.4856 159.557 84.1167C159.309 80.367 155.116 77.8411 151.503 78.4781C147.89 79.115 145.04 82.084 143.302 85.3933C141.565 88.7 140.702 92.4025 139.43 95.9246C138.158 99.4468 136.34 102.959 133.295 105.049C130.25 107.136 125.724 107.325 123.181 104.62C122.602 105.775 122.295 107.054 122.288 108.353C122.28 109.652 122.571 110.935 123.137 112.097Z" fill="#2F2E41"/>
<path d="M136.21 171.809C136.474 171.593 136.76 171.407 137.063 171.255C141.939 168.768 157.104 162.311 168.962 162.576C191.778 163.086 220.813 188.892 214.056 206.222C208.914 219.409 183.35 226.911 164.69 220.911C138.548 212.505 128.23 178.33 136.21 171.809Z" fill="#3F3D56"/>
<path d="M41.4934 266.808C34.0382 265.367 27.439 230.944 42.1069 213.991C47.1323 208.182 53.4008 205.654 61.7392 203.302C109.732 189.76 146.337 202.666 151.256 205.817C156.164 208.961 164.768 256.33 153.766 263.036C147.575 266.808 135.305 268.695 129.225 264.293C120.28 257.817 135.295 241.018 128.612 229.71C121.028 216.879 81.092 212.557 61.0701 225.309C39.7087 238.914 83.7699 274.982 41.4934 266.808Z" fill="#F2F2F2"/>
<path d="M91.3377 208.282H62.8562C55.8253 201.376 50.7982 194.721 54.823 189.196C54.823 187.608 55.4385 186.085 56.5342 184.962C57.6298 183.839 59.1158 183.208 60.6653 183.208H93.5285C95.078 183.208 96.5641 183.839 97.6597 184.962C98.7554 186.085 99.3709 187.608 99.3709 189.196C100.903 195.491 98.1656 201.854 91.3377 208.282Z" fill="#CCCCCC"/>
<path d="M86.2226 175.67C85.9524 175.683 85.6849 175.61 85.4563 175.462C85.2277 175.314 85.0492 175.097 84.9448 174.841C84.8405 174.585 84.8154 174.303 84.8729 174.032C84.9304 173.761 85.0678 173.515 85.2665 173.327L85.3569 172.958C85.3449 172.929 85.333 172.899 85.3209 172.87C85.0487 172.211 84.5925 171.649 84.0097 171.255C83.4268 170.861 82.7434 170.652 82.0451 170.654C81.3468 170.657 80.6648 170.871 80.0849 171.27C79.5049 171.668 79.0528 172.234 78.7854 172.895C77.7164 175.533 76.3555 178.176 76.0204 180.966C75.8728 182.199 75.9351 183.449 76.2044 184.661C73.6938 179.048 72.3901 172.947 72.3817 166.773C72.3812 165.223 72.4652 163.675 72.6333 162.135C72.7723 160.873 72.965 159.62 73.2116 158.375C74.5572 151.623 77.4464 145.295 81.6418 139.91C83.6723 138.774 85.3145 137.028 86.3469 134.907C86.7209 134.144 86.9853 133.33 87.1317 132.49C86.9027 132.521 86.268 128.945 86.4408 128.726C86.1216 128.229 85.5502 127.983 85.2016 127.498C83.4677 125.089 81.0789 125.51 79.8318 128.784C77.1678 130.162 77.142 132.447 78.7766 134.645C79.8166 136.043 79.9595 137.936 80.872 139.433C80.7781 139.556 80.6805 139.675 80.5866 139.798C78.8705 142.06 77.3748 144.488 76.1209 147.049C76.4259 144.18 76.0619 141.278 75.0591 138.582C74.0427 136.069 72.1377 133.953 70.4601 131.78C68.445 129.171 64.3129 130.31 63.9579 133.618C63.9544 133.65 63.9511 133.682 63.9478 133.714C64.197 133.858 64.4409 134.011 64.6796 134.172C64.9794 134.378 65.2117 134.671 65.3461 135.014C65.4805 135.357 65.5106 135.733 65.4326 136.094C65.3546 136.455 65.1721 136.783 64.909 137.036C64.6459 137.289 64.3144 137.454 63.958 137.51L63.9215 137.516C64.0103 138.436 64.1672 139.349 64.3909 140.245C62.2387 148.775 66.8851 151.882 73.5195 152.021C73.666 152.098 73.8087 152.175 73.9551 152.248C72.6954 155.907 71.9052 159.718 71.6044 163.586C71.4342 165.868 71.4442 168.16 71.6345 170.44L71.6232 170.36C71.1425 167.824 69.8228 165.536 67.8869 163.882C65.0116 161.462 60.9493 160.57 57.8474 158.625C57.5177 158.408 57.1344 158.292 56.7426 158.291C56.3509 158.29 55.967 158.404 55.6363 158.619C55.3056 158.834 55.0419 159.142 54.8762 159.506C54.7106 159.87 54.6499 160.274 54.7014 160.673C54.7055 160.701 54.7097 160.729 54.7141 160.757C55.1765 160.951 55.6267 161.173 56.0621 161.423C56.3113 161.567 56.5552 161.72 56.7939 161.882C57.0937 162.087 57.326 162.381 57.4604 162.724C57.5947 163.067 57.6249 163.443 57.5469 163.804C57.4689 164.165 57.2864 164.493 57.0233 164.746C56.7602 164.998 56.4287 165.164 56.0723 165.22L56.0358 165.226C56.0095 165.229 55.987 165.233 55.9607 165.237C56.7508 167.171 57.8597 168.95 59.2389 170.498C60.5846 177.945 66.3644 178.651 72.5469 176.483H72.5507C73.2291 179.504 74.2119 182.444 75.4834 185.257H85.9601C85.9977 185.138 86.0315 185.015 86.0653 184.896C85.0956 184.958 84.122 184.899 83.1663 184.719C83.9437 183.741 84.721 182.756 85.4983 181.778C85.5156 181.76 85.5319 181.741 85.5471 181.721C85.9414 181.22 86.3394 180.724 86.7337 180.223L86.7339 180.223C86.7549 178.689 86.5832 177.159 86.223 175.671L86.2226 175.67Z" fill="#CCCCCC"/>
<path d="M121.957 206.718C122.13 207.237 122.46 207.685 122.898 208C123.336 208.314 123.86 208.479 124.395 208.469L134.844 208.193C135.382 208.182 135.903 207.993 136.329 207.654C136.754 207.315 137.06 206.843 137.203 206.311L138.681 190.107C139.206 190.35 139.777 190.471 140.353 190.459C141.363 190.433 142.322 189.996 143.018 189.246C143.715 188.495 144.092 187.492 144.066 186.457C144.041 185.421 143.615 184.438 142.883 183.725C142.151 183.011 141.172 182.625 140.161 182.651C139.931 182.65 139.702 182.674 139.477 182.724C139.232 182.452 138.934 182.236 138.603 182.09C138.272 181.943 137.915 181.87 137.554 181.873L121.482 182.299C121.349 182.304 121.216 182.321 121.086 182.349C120.733 182.417 120.399 182.561 120.105 182.771C119.812 182.982 119.565 183.255 119.383 183.572C119.201 183.888 119.087 184.241 119.05 184.606C119.012 184.972 119.051 185.341 119.164 185.69L121.957 206.718ZM138.984 189.006L140.036 185.145C140.156 184.699 140.159 184.228 140.045 183.781C140.096 183.781 140.141 183.756 140.192 183.756C140.913 183.741 141.611 184.019 142.132 184.531C142.653 185.042 142.955 185.744 142.972 186.483C142.989 187.223 142.719 187.938 142.222 188.474C141.725 189.01 141.04 189.322 140.319 189.341C139.853 189.356 139.391 189.24 138.984 189.006Z" fill="#CCCCCC"/>
<path d="M121.086 182.349C121.428 184.356 125.278 185.766 129.907 185.521C134.164 185.32 137.644 183.788 138.282 181.973C138.046 181.901 137.8 181.868 137.554 181.873L121.482 182.299C121.349 182.304 121.216 182.321 121.086 182.349Z" fill="white"/>
<path d="M0.559566 267.568L352.44 267.716C352.589 267.716 352.731 267.656 352.836 267.548C352.941 267.441 353 267.295 353 267.143C353 266.991 352.941 266.845 352.836 266.737C352.731 266.63 352.589 266.569 352.44 266.569L0.559566 266.421C0.411159 266.421 0.268832 266.482 0.163893 266.589C0.0589533 266.697 0 266.843 0 266.995C0 267.147 0.0589533 267.293 0.163893 267.4C0.268832 267.508 0.411159 267.568 0.559566 267.568Z" fill="#CACACA"/>
<path d="M197.919 139.397C196.962 139.433 196.056 139.85 195.395 140.56C194.733 141.27 194.368 142.216 194.377 143.197C194.382 143.397 194.403 143.595 194.439 143.791L183.396 150.473L184.733 157.409L198.895 146.579C199.676 146.36 200.364 145.882 200.852 145.219C201.339 144.557 201.599 143.748 201.591 142.918C201.582 142.446 201.483 141.981 201.298 141.548C201.113 141.115 200.847 140.724 200.515 140.397C200.183 140.07 199.791 139.813 199.362 139.641C198.933 139.469 198.475 139.385 198.015 139.394C197.983 139.395 197.951 139.396 197.919 139.397Z" fill="#FFB6B6"/>
<path d="M188.872 155.327C188.577 154.922 188.45 154.752 188.383 154.798C188.21 154.905 188.376 156.338 187.16 158.836C185.447 162.345 167.495 167.719 167.495 167.719L165.285 163.572L155.562 145.346L152.211 130.737C152.094 130.228 152.037 129.706 152.041 129.183C155.029 127.028 158.202 125.156 161.521 123.59C162.847 124.361 163.858 125.596 164.369 127.068L171.062 146.3L173.732 153.979C173.732 153.979 178.443 150.526 180.152 151.16C181.858 151.798 182.343 150.904 181.228 148.041C180.113 145.179 181.787 148.125 183.734 148.313C185.686 148.503 183.734 148.313 184.656 147.098C185.578 145.884 191.539 145.2 191.539 145.2L191.665 145.471L193.975 150.341L194.636 151.74C194.636 151.74 192.188 154.463 191.597 155.006C191.003 155.552 190.82 155.515 191.111 156.137C191.397 156.757 189.898 156.729 188.872 155.327Z" fill="#0E4C9D"/>
</g>
<defs>
<clipPath id="clip0_115_227">
<rect width="353" height="268" fill="white"/>
</clipPath>
</defs>
</svg>
