<svg width="353" height="229" viewBox="0 0 353 229" fill="none" xmlns="http://www.w3.org/2000/svg">
<g clip-path="url(#clip0_115_287)">
<path d="M0 228.506C0 228.745 0.255717 228.936 0.574154 228.936H352.426C352.744 228.936 353 228.745 353 228.506C353 228.267 352.744 228.076 352.426 228.076H0.574154C0.255717 228.076 0 228.267 0 228.506Z" fill="#3F3D56"/>
<path d="M213.984 50.859L215.913 59.1755L195.168 61.7066L199.992 50.1358L213.984 50.859Z" fill="#A0616A"/>
<path d="M266.896 56.3564C271.076 57.7606 272.077 62.889 269.131 67.8102C267.991 69.7898 266.233 71.5354 264.007 72.9015L259.795 81.3278C257.033 91.3724 250.744 101.948 242.082 101.128C229.822 99.9679 225.96 88.8002 225.96 88.8002L242.458 83.9633L249.823 73.3212L252.334 68.9792C252.215 66.8255 252.785 64.6817 253.998 62.7271C256.943 57.8034 262.717 54.9521 266.896 56.3564V56.3564V56.3564Z" fill="#A0616A"/>
<path d="M126.455 217.977L115.014 211.64L115.105 211.503L178.845 116.324L178.965 116.309L230.29 109.777L240.98 127.622L268.936 157.08C270.861 159.109 271.868 161.498 271.846 163.988L271.395 216.461L254.053 216.832L254.029 216.666L247.979 174.241C247.538 171.149 245.398 168.288 242.107 166.394L207.987 146.747L126.455 217.977H126.455Z" fill="#2F2E41"/>
<path d="M116.768 212.308C116.768 212.308 110.979 213.031 109.049 215.562C107.119 218.093 101.33 223.517 101.33 223.517C101.33 223.517 96.9875 229.664 107.119 228.941C117.251 228.218 121.11 224.963 121.11 224.963L125.453 215.924L116.768 212.308H116.768Z" fill="#2F2E41"/>
<path d="M262.953 212.308C262.953 212.308 268.743 213.031 270.672 215.562C272.602 218.093 278.392 223.517 278.392 223.517C278.392 223.517 282.734 229.664 272.602 228.941C262.471 228.218 258.611 224.963 258.611 224.963L254.269 215.924L262.953 212.308Z" fill="#2F2E41"/>
<path d="M185.519 61.3451L219.773 56.2828L239.071 60.9835L233.764 114.86L179.005 116.487L185.519 61.3451Z" fill="#6C63FF"/>
<path d="M235.635 59.7766L243.097 68.2239L244.829 89.0493L222.668 90.31L223.265 63.33L235.635 59.7766Z" fill="#6C63FF"/>
<path d="M256.143 80.0455L247.175 77.3753L235.775 93.2013L246.187 97.0923L256.143 80.0455Z" fill="#A0616A"/>
<path d="M262.393 66.5771C261.77 66.5771 261.146 66.498 260.55 66.3384C259.114 65.9535 257.948 65.13 257.351 64.0785L250.55 52.103C247.987 47.5916 245.045 43.1463 241.803 38.8906L240.382 37.0258C239.405 35.8994 216.262 9.20546 215.161 7.12068C214.331 5.54862 216.811 2.32506 216.917 2.18841L216.946 2.15874C217.001 2.11284 222.552 -2.42078 229.233 1.78939C235.793 5.92257 246.834 33.3146 247.3 34.4788L247.599 35.0427C250.322 40.1989 253.766 45.1633 257.834 49.7972L266.976 60.2105C267.826 61.1791 268.091 62.3782 267.703 63.5004C267.314 64.6223 266.306 65.5736 264.936 66.1106C264.146 66.4203 263.271 66.5771 262.393 66.5771V66.5771Z" fill="#3F3D56"/>
<path d="M201.393 70.3855L212.164 70.8387L232.859 54.4766L240.945 47.2722C241.653 45.1829 243.019 43.2512 244.927 41.6385C249.63 37.5532 256.252 36.0601 259.72 38.3026C263.188 40.5448 262.188 45.6731 257.486 49.7565C255.636 51.4083 253.286 52.7041 250.631 53.5351L248.637 55.5061L225.798 79.5656C221.677 83.9067 214.39 85.871 207.524 84.4919L193.545 81.6841L201.393 70.3855V70.3855Z" fill="#A0616A"/>
<path d="M195.348 86.5087L178.727 78.507C173.445 75.9639 171.415 70.9822 173.9 66.6616C175.41 64.0375 178.373 62.0706 182.031 61.2655C185.685 60.4598 189.601 60.9127 192.765 62.509L209.085 70.7418L195.348 86.5087Z" fill="#6C63FF"/>
<path d="M203.379 53.9159C212.785 53.9159 220.41 48.2012 220.41 41.1518C220.41 34.1024 212.785 28.3878 203.379 28.3878C193.974 28.3878 186.349 34.1024 186.349 41.1518C186.349 48.2012 193.974 53.9159 203.379 53.9159Z" fill="#A0616A"/>
<path d="M214.583 52.1695L213.112 50.3332C213.112 50.3332 219.553 47.0794 214.232 45.191C208.91 43.3026 208.07 38.6853 208.07 38.6853C208.07 38.6853 192.527 35.3287 193.367 32.81C194.206 30.2914 191.826 28.5076 195.746 27.4578C199.666 26.4081 217.169 27.4558 219.13 30.4989C221.09 33.542 223.052 41.937 222.072 43.0914C221.092 44.2459 214.583 52.1695 214.583 52.1695Z" fill="#2F2E41"/>
<path d="M210.17 37.7406L194.346 29.8716C194.346 29.8716 173.903 25.1512 181.605 34.1754L188.116 35.1717C188.116 35.1717 205.829 38.2657 210.17 37.7406H210.17Z" fill="#6C63FF"/>
<path d="M205.409 35.9571L221.933 45.2952C221.933 45.2952 231.592 32.3866 216.469 25.9867C201.345 19.5868 191.756 29.6095 191.756 29.6095L195.747 32.8098L205.409 35.9571Z" fill="#6C63FF"/>
<path d="M86.6774 14.8811C86.6774 18.7789 90.8942 21.9428 96.0999 21.9428C98.6474 21.9428 100.958 21.1836 102.652 19.9505C104.422 18.6668 105.517 16.8698 105.517 14.8811C105.517 10.983 101.301 7.81915 96.0999 7.81915C94.4693 7.81915 92.9399 8.13024 91.6032 8.67263C91.3766 8.76656 91.1547 8.8679 90.9375 8.9763C88.9017 9.97437 87.4204 11.5471 86.8946 13.3877C86.8272 13.5975 86.7787 13.8108 86.7499 14.0278C86.7014 14.3062 86.6774 14.5919 86.6774 14.8811H86.6774Z" fill="#6C63FF"/>
<path d="M86.7499 14.0278C86.8992 14.1506 87.0538 14.2845 87.2224 14.4363C87.7921 14.9497 88.0187 15.2282 88.3372 15.615C88.6119 15.9513 88.9596 16.3708 89.6394 17.0795C91.0435 18.5404 91.7478 19.2743 92.8433 19.9398C93.9241 20.5941 95.2702 21.4113 97.2914 21.5162C97.4313 21.5235 97.5713 21.5235 97.7065 21.5235C100.152 21.5235 101.937 20.4205 102.618 19.9253C104.398 18.6235 104.769 17.0433 104.847 16.425C104.909 15.9261 104.996 14.1759 103.467 12.6031C102.116 11.2145 100.249 10.7193 98.4396 10.2346C97.2575 9.92 96.3604 9.80788 95.5642 9.70672C94.4739 9.56936 93.5377 9.45001 92.105 8.88591C91.9071 8.80646 91.7431 8.7376 91.6032 8.67263C91.3766 8.76656 91.1547 8.8679 90.9375 8.97631C90.9714 8.99078 91.01 9.00879 91.0487 9.02698C91.2367 9.11014 91.468 9.21131 91.7865 9.33789C93.3158 9.94172 94.3533 10.0755 95.4483 10.2129C96.2544 10.3142 97.0888 10.4191 98.213 10.7193C99.9982 11.1965 101.687 11.6448 102.912 12.9068C104.302 14.3351 104.22 15.9224 104.166 16.3744C104.094 16.9385 103.757 18.374 102.14 19.5564C101.489 20.0301 99.723 21.1257 97.3399 21.0028C95.5307 20.9087 94.2807 20.1493 93.2725 19.542C92.2496 18.92 91.5646 18.204 90.1992 16.7829C89.5287 16.0852 89.1909 15.6729 88.9209 15.3438C88.6024 14.957 88.3513 14.6496 87.7534 14.1109C87.4302 13.818 87.1452 13.583 86.8945 13.3877C86.8272 13.5975 86.7786 13.8108 86.7499 14.0278V14.0278L86.7499 14.0278Z" fill="#E6E6E6"/>
</g>
<defs>
<clipPath id="clip0_115_287">
<rect width="353" height="229" fill="white"/>
</clipPath>
</defs>
</svg>
