<svg width="353" height="229" viewBox="0 0 353 229" fill="none" xmlns="http://www.w3.org/2000/svg">
<g clip-path="url(#clip0_115_257)">
<path d="M266.629 182.362C265.662 175.836 265.407 169.224 265.867 162.642L266.629 151.75C262.433 160.119 263.381 171.135 266.629 182.362V182.362Z" fill="#CACACA"/>
<path d="M269.901 184.184C269.435 180.29 269.313 176.362 269.534 172.446L269.901 165.963C267.882 170.944 268.338 177.501 269.901 184.184Z" fill="#CACACA"/>
<path d="M284.443 192.202V195.847C284.442 196.136 284.326 196.413 284.122 196.618C283.918 196.823 283.641 196.939 283.353 196.94H281.535C281.487 196.94 281.44 196.949 281.396 196.967C281.351 196.986 281.311 197.013 281.278 197.046C281.244 197.08 281.217 197.121 281.199 197.165C281.181 197.209 281.171 197.257 281.171 197.304V227.188C281.17 227.477 281.055 227.754 280.85 227.959C280.646 228.164 280.37 228.279 280.081 228.281H257.906C257.617 228.281 257.34 228.165 257.135 227.96C256.931 227.755 256.816 227.477 256.815 227.188V197.304C256.815 197.208 256.777 197.115 256.709 197.047C256.641 196.979 256.548 196.94 256.452 196.94H254.271C253.982 196.94 253.704 196.825 253.5 196.62C253.295 196.415 253.18 196.137 253.18 195.847V192.202C253.18 192.059 253.208 191.917 253.263 191.784C253.318 191.651 253.398 191.531 253.499 191.429C253.6 191.327 253.721 191.247 253.853 191.192C253.986 191.137 254.127 191.109 254.271 191.109H283.353C283.642 191.11 283.918 191.226 284.123 191.43C284.327 191.635 284.442 191.913 284.443 192.202Z" fill="#F2F2F2"/>
<path d="M281.204 197.705H256.848V198.799H281.204V197.705Z" fill="#E6E6E6"/>
<path d="M281.171 213.793C273.021 217.174 264.782 217.211 256.452 213.793V206.091C264.472 203.39 273.152 203.39 281.171 206.091V213.793Z" fill="#E6E6E6"/>
<path d="M164.124 91.246C171.431 91.246 177.355 85.3076 177.355 77.9823C177.355 70.657 171.431 64.7187 164.124 64.7187C156.817 64.7187 150.893 70.657 150.893 77.9823C150.893 85.3076 156.817 91.246 164.124 91.246Z" fill="#2F2E41"/>
<path d="M167.81 65.0838C170.1 65.0841 172.35 65.68 174.341 66.8133C176.333 67.9467 177.997 69.5786 179.17 71.5495C180.344 73.5205 180.987 75.763 181.038 78.0579C181.088 80.3528 180.543 82.6215 179.457 84.6422C180.604 83.2035 181.44 81.541 181.91 79.7606C182.381 77.9803 182.477 76.1211 182.191 74.3017C181.905 72.4823 181.245 70.7425 180.251 69.1931C179.258 67.6438 177.954 66.3189 176.421 65.3029C174.889 64.2868 173.162 63.602 171.351 63.292C169.54 62.9819 167.684 63.0535 165.902 63.5021C164.12 63.9508 162.451 64.7666 161.001 65.8977C159.551 67.0287 158.352 68.4502 157.481 70.0715C158.717 68.5149 160.288 67.258 162.077 66.3945C163.865 65.5309 165.825 65.0829 167.81 65.0838Z" fill="#2F2E41"/>
<path d="M139.4 77.9542C160.865 77.9542 178.266 60.5104 178.266 38.9923C178.266 17.4742 160.865 0.0303497 139.4 0.0303497C117.936 0.0303497 100.535 17.4742 100.535 38.9923C100.535 60.5104 117.936 77.9542 139.4 77.9542Z" fill="#2F2E41"/>
<path d="M108.898 14.8183C115.594 7.26805 124.955 2.62151 135.005 1.8593C145.054 1.0971 155.006 4.27885 162.76 10.733C162.442 10.4302 162.128 10.1249 161.797 9.83056C154.093 2.9703 143.986 -0.541803 133.699 0.0664906C123.412 0.674784 113.787 5.35367 106.941 13.0744C100.094 20.7951 96.5866 30.9255 97.189 41.2383C97.7913 51.5511 102.454 61.2019 110.153 68.0688C110.483 68.3631 110.823 68.6404 111.16 68.9214C103.858 61.9579 99.5401 52.4227 99.118 42.3283C98.6959 32.2339 102.202 22.3699 108.898 14.8183Z" fill="#2F2E41"/>
<path d="M139.071 77.624C152.896 77.624 164.103 66.389 164.103 52.5299C164.103 38.6708 152.896 27.4358 139.071 27.4358C125.246 27.4358 114.039 38.6708 114.039 52.5299C114.039 66.389 125.246 77.624 139.071 77.624Z" fill="#FFB8B8"/>
<path d="M151.858 84.4364L125.071 85.6436C125.071 85.6436 127.307 99.5313 112.815 100.852C98.3225 102.173 85.1478 98.2105 79.878 108.116C74.6081 118.022 76.8795 153.293 76.8795 153.293C76.8795 153.293 86.7605 188.953 94.6653 194.236C102.57 199.519 171.737 192.255 171.737 192.255L200.684 155.614L199.703 127.356C199.191 112.6 185.752 101.521 171.278 104.252C170.994 104.306 170.708 104.363 170.419 104.425C170.419 104.425 167.24 102.043 158.515 97.6697C153.18 94.9954 151.858 84.4364 151.858 84.4364Z" fill="#CACACA"/>
<path d="M93.7113 100.192C93.7113 100.192 100.078 111.772 97.4431 128.282C94.8082 144.791 105.864 179.708 105.864 179.708L113.769 177.727C113.769 177.727 108.499 143.387 109.816 135.463C111.134 127.538 111.497 104.154 104.91 100.192C98.3225 96.2294 93.7113 100.192 93.7113 100.192Z" fill="#2F2E41"/>
<path d="M169.956 106.264L172.725 179.378L177.995 182.679C177.995 182.679 185.57 102.444 181.618 102.444H173.576C173.1 102.444 172.629 102.538 172.189 102.721C171.749 102.903 171.35 103.171 171.013 103.508C170.676 103.846 170.409 104.246 170.227 104.687C170.045 105.128 169.951 105.601 169.951 106.078C169.951 106.14 169.953 106.202 169.956 106.264Z" fill="#2F2E41"/>
<path d="M109.487 178.057C111.306 178.057 112.78 176.579 112.78 174.755C112.78 172.931 111.306 171.453 109.487 171.453C107.668 171.453 106.193 172.931 106.193 174.755C106.193 176.579 107.668 178.057 109.487 178.057Z" fill="#6C63FF"/>
<path d="M175.36 181.359C177.179 181.359 178.654 179.88 178.654 178.057C178.654 176.233 177.179 174.755 175.36 174.755C173.541 174.755 172.066 176.233 172.066 178.057C172.066 179.88 173.541 181.359 175.36 181.359Z" fill="#6C63FF"/>
<path d="M117.662 21.162V46.2562H123.459L130.837 38.3317L129.849 46.2562H155.473L153.893 38.3317L157.054 46.2562H161.139V21.162H117.662Z" fill="#2F2E41"/>
<path d="M113.71 50.879C114.801 50.879 115.686 49.2529 115.686 47.2469C115.686 45.241 114.801 43.6149 113.71 43.6149C112.619 43.6149 111.734 45.241 111.734 47.2469C111.734 49.2529 112.619 50.879 113.71 50.879Z" fill="#FFB8B8"/>
<path d="M164.432 50.879C165.524 50.879 166.409 49.2529 166.409 47.2469C166.409 45.241 165.524 43.6149 164.432 43.6149C163.341 43.6149 162.456 45.241 162.456 47.2469C162.456 49.2529 163.341 50.879 164.432 50.879Z" fill="#FFB8B8"/>
<path d="M219.26 221.735V223.947C219.261 224.554 219.149 225.156 218.929 225.722C218.831 225.974 218.713 226.218 218.576 226.451C218.143 227.18 217.528 227.783 216.792 228.203C216.056 228.622 215.224 228.842 214.378 228.841H52.0463C51.1998 228.842 50.3677 228.622 49.6317 228.202C48.8956 227.783 48.2808 227.18 47.8476 226.451C47.7105 226.218 47.5926 225.974 47.495 225.722C47.2751 225.156 47.1629 224.554 47.1642 223.947V221.735C47.164 221.092 47.2901 220.456 47.5352 219.862C47.7803 219.269 48.1397 218.729 48.5928 218.275C49.0459 217.82 49.5839 217.46 50.176 217.214C50.7681 216.968 51.4027 216.841 52.0437 216.841H61.4034V215.809C61.4033 215.783 61.4085 215.756 61.4187 215.731C61.4289 215.707 61.4438 215.684 61.4627 215.665C61.4815 215.646 61.5039 215.631 61.5285 215.621C61.5532 215.611 61.5796 215.605 61.6063 215.605H66.4891C66.543 215.605 66.5947 215.627 66.6329 215.665C66.671 215.703 66.6925 215.755 66.6926 215.809V216.841H69.7426V215.809C69.7425 215.783 69.7478 215.756 69.7579 215.731C69.7681 215.707 69.783 215.684 69.8019 215.665C69.8207 215.646 69.8431 215.631 69.8677 215.621C69.8924 215.611 69.9188 215.605 69.9455 215.605H74.8283C74.8822 215.605 74.9339 215.627 74.9721 215.665C75.0103 215.703 75.0318 215.755 75.0319 215.809V216.841H78.0855V215.809C78.0854 215.783 78.0906 215.756 78.1008 215.731C78.111 215.707 78.1259 215.684 78.1447 215.665C78.1636 215.646 78.186 215.631 78.2106 215.621C78.2352 215.611 78.2617 215.605 78.2884 215.605H83.1711C83.225 215.605 83.2768 215.627 83.315 215.665C83.3531 215.703 83.3746 215.755 83.3747 215.809V216.841H86.4247V215.809C86.4246 215.783 86.4298 215.756 86.44 215.731C86.4502 215.707 86.4651 215.684 86.484 215.665C86.5028 215.646 86.5252 215.631 86.5498 215.621C86.5745 215.611 86.6009 215.605 86.6276 215.605H91.5104C91.5643 215.605 91.616 215.627 91.6542 215.665C91.6923 215.703 91.7138 215.755 91.7139 215.809V216.841H94.7639V215.809C94.7639 215.783 94.7691 215.756 94.7792 215.731C94.7894 215.707 94.8043 215.684 94.8232 215.665C94.842 215.646 94.8644 215.631 94.889 215.621C94.9137 215.611 94.9401 215.605 94.9668 215.605H99.8496C99.9035 215.605 99.9552 215.627 99.9934 215.665C100.032 215.703 100.053 215.755 100.053 215.809V216.841H103.107V215.809C103.107 215.783 103.112 215.756 103.122 215.731C103.132 215.707 103.147 215.684 103.166 215.665C103.185 215.646 103.207 215.631 103.232 215.621C103.257 215.611 103.283 215.605 103.31 215.605H108.192C108.246 215.605 108.298 215.627 108.336 215.665C108.374 215.703 108.396 215.755 108.396 215.809V216.841H111.446V215.809C111.446 215.783 111.451 215.756 111.461 215.731C111.471 215.707 111.486 215.684 111.505 215.665C111.524 215.646 111.546 215.631 111.571 215.621C111.596 215.611 111.622 215.605 111.649 215.605H149.892C149.919 215.605 149.945 215.611 149.97 215.621C149.995 215.631 150.017 215.646 150.036 215.665C150.055 215.684 150.07 215.706 150.08 215.731C150.09 215.756 150.096 215.782 150.096 215.809V216.841H153.149V215.809C153.149 215.783 153.155 215.756 153.165 215.731C153.175 215.707 153.19 215.684 153.209 215.665C153.228 215.646 153.25 215.631 153.275 215.621C153.299 215.611 153.326 215.605 153.352 215.605H158.235C158.289 215.606 158.34 215.628 158.378 215.666C158.417 215.704 158.438 215.755 158.439 215.809V216.841H161.489V215.809C161.489 215.783 161.494 215.756 161.504 215.731C161.514 215.707 161.529 215.684 161.548 215.665C161.567 215.646 161.589 215.631 161.614 215.621C161.638 215.611 161.665 215.605 161.692 215.605H166.574C166.601 215.605 166.627 215.611 166.652 215.621C166.677 215.631 166.699 215.646 166.718 215.665C166.737 215.684 166.752 215.706 166.762 215.731C166.773 215.756 166.778 215.782 166.778 215.809V216.841H169.828V215.809C169.828 215.783 169.833 215.756 169.843 215.731C169.853 215.707 169.868 215.684 169.887 215.665C169.906 215.646 169.928 215.631 169.953 215.621C169.978 215.611 170.004 215.605 170.031 215.605H174.914C174.94 215.605 174.967 215.611 174.991 215.621C175.016 215.631 175.038 215.646 175.057 215.665C175.076 215.684 175.091 215.706 175.101 215.731C175.112 215.756 175.117 215.782 175.117 215.809V216.841H178.171V215.809C178.171 215.783 178.176 215.756 178.186 215.731C178.196 215.707 178.211 215.684 178.23 215.665C178.249 215.646 178.271 215.631 178.296 215.621C178.32 215.611 178.347 215.605 178.374 215.605H183.256C183.31 215.606 183.361 215.628 183.398 215.666C183.436 215.704 183.457 215.756 183.456 215.809V216.841H186.51V215.809C186.51 215.783 186.515 215.756 186.525 215.731C186.535 215.707 186.55 215.684 186.569 215.665C186.588 215.646 186.61 215.631 186.635 215.621C186.66 215.611 186.686 215.605 186.713 215.605H191.596C191.622 215.605 191.649 215.611 191.673 215.621C191.698 215.631 191.72 215.646 191.739 215.665C191.758 215.684 191.773 215.706 191.784 215.731C191.794 215.756 191.799 215.782 191.799 215.809V216.841H194.849V215.809C194.849 215.783 194.854 215.756 194.864 215.731C194.875 215.707 194.89 215.684 194.908 215.665C194.927 215.646 194.95 215.631 194.974 215.621C194.999 215.611 195.025 215.605 195.052 215.605H199.935C199.962 215.605 199.988 215.611 200.013 215.621C200.037 215.631 200.06 215.646 200.079 215.665C200.098 215.684 200.113 215.706 200.123 215.731C200.133 215.756 200.138 215.782 200.138 215.809V216.841H214.378C215.672 216.84 216.914 217.356 217.829 218.273C218.745 219.19 219.259 220.435 219.26 221.732L219.26 221.735Z" fill="#3F3D56"/>
<path d="M353 228.271H0V229H353V228.271Z" fill="#3F3D56"/>
<path d="M206.188 128.575H57.4915C56.954 128.575 56.4218 128.681 55.9252 128.887C55.4287 129.093 54.9775 129.395 54.5974 129.776C54.2174 130.157 53.9159 130.61 53.7102 131.107C53.5046 131.605 53.3987 132.139 53.3987 132.678V215.735C53.3987 216.823 53.8299 217.867 54.5974 218.636C55.365 219.406 56.406 219.838 57.4915 219.838H206.188C207.274 219.838 208.315 219.406 209.082 218.636C209.85 217.867 210.281 216.823 210.281 215.735V132.678C210.281 131.589 209.85 130.546 209.082 129.776C208.315 129.007 207.274 128.575 206.188 128.575Z" fill="#3F3D56"/>
<path d="M131.959 166.683C136.978 166.683 141.047 162.604 141.047 157.572C141.047 152.54 136.978 148.461 131.959 148.461C126.94 148.461 122.871 152.54 122.871 157.572C122.871 162.604 126.94 166.683 131.959 166.683Z" fill="#6C63FF"/>
<path d="M188.219 97.3822L234.098 51.0258H255.758V50.2969H233.794L233.688 50.4052L187.702 96.8698L188.219 97.3822Z" fill="#3F3D56"/>
<path d="M335.369 31.994H282.213V36.7424H335.369V31.994Z" fill="#6C63FF"/>
<path d="M275.735 39.7449H264.482V28.4639H275.735V39.7449ZM265.209 39.0161H275.008V29.1927H265.209L265.209 39.0161Z" fill="#3F3D56"/>
<path d="M335.369 47.8221H282.213V52.5706H335.369V47.8221Z" fill="#6C63FF"/>
<path d="M275.735 55.573H264.482V44.2921H275.735V55.573ZM265.209 54.8442H275.008V45.021H265.209L265.209 54.8442Z" fill="#3F3D56"/>
<path d="M335.369 63.6503H282.213V68.3987H335.369V63.6503Z" fill="#6C63FF"/>
<path d="M275.735 71.4011H264.482V60.1202H275.735V71.4011ZM265.209 70.6722H275.008V60.849H265.209L265.209 70.6722Z" fill="#3F3D56"/>
</g>
<defs>
<clipPath id="clip0_115_257">
<rect width="353" height="229" fill="white"/>
</clipPath>
</defs>
</svg>
